<svg width="1136" height="776" viewBox="0 0 1136 776" fill="none" xmlns="http://www.w3.org/2000/svg">
<path d="M162.286 227.467C162.328 217.415 173.225 211.167 181.855 216.247L419.687 356.227C421.699 357.411 423.993 358.027 426.329 358.011L710.478 356.072C724.476 355.976 728.632 375.115 715.878 380.941L178.99 626.213C170.378 630.147 160.623 623.832 160.662 614.347L162.286 227.467Z" fill="url(#paint0_linear)"/>
<path d="M60.8387 454.988C52.5826 449.704 52.1899 437.779 60.0797 431.942L430.179 158.11C439.251 151.397 452.116 157.609 452.487 168.882L469.668 690.599C470.04 701.871 457.612 708.95 448.119 702.873L60.8387 454.988Z" fill="#FE5F7C"/>
<path d="M60.8387 454.988C52.5826 449.704 52.1899 437.779 60.0797 431.942L430.179 158.11C439.251 151.397 452.116 157.609 452.487 168.882L469.668 690.599C470.04 701.871 457.612 708.95 448.119 702.873L60.8387 454.988Z" fill="url(#paint1_linear)"/>
<path d="M118.516 458.795C118.516 457.184 118.604 455.704 118.779 454.356C118.984 452.979 119.277 451.5 119.658 449.918H128.491V453.565C128.491 455.587 128.608 457.374 128.843 458.927C129.106 460.479 129.517 461.798 130.073 462.882C130.659 463.937 131.421 464.742 132.358 465.299C133.325 465.826 134.497 466.09 135.874 466.09C138.042 466.09 139.697 465.504 140.84 464.332C141.982 463.131 142.554 461.388 142.554 459.103C142.554 457.931 142.466 456.861 142.29 455.895C142.144 454.898 141.865 453.917 141.455 452.95C141.074 451.983 140.547 450.973 139.873 449.918C139.199 448.834 138.335 447.633 137.28 446.314L125.415 432.208C123.306 429.513 121.68 426.803 120.537 424.078C119.395 421.324 118.823 418.395 118.823 415.289C118.823 412.799 119.204 410.514 119.966 408.434C120.757 406.354 121.885 404.566 123.35 403.072C124.814 401.549 126.616 400.377 128.755 399.557C130.923 398.707 133.369 398.282 136.094 398.282C139.404 398.282 142.158 398.751 144.355 399.688C146.582 400.626 148.354 401.856 149.673 403.38C150.991 404.903 151.914 406.617 152.441 408.521C152.998 410.396 153.276 412.286 153.276 414.19C153.276 415.802 153.145 417.296 152.881 418.673C152.646 420.021 152.368 421.515 152.046 423.155H143.257V419.596C143.257 415.611 142.686 412.564 141.543 410.455C140.4 408.316 138.54 407.247 135.962 407.247C133.823 407.247 132.227 407.848 131.172 409.049C130.117 410.221 129.59 411.803 129.59 413.795C129.59 414.85 129.663 415.802 129.81 416.651C129.985 417.501 130.22 418.292 130.513 419.024C130.835 419.728 131.216 420.416 131.655 421.09C132.095 421.764 132.593 422.467 133.149 423.199L146.377 439.195C148.779 442.33 150.625 445.348 151.914 448.248C153.203 451.119 153.848 454.166 153.848 457.389C153.848 460.055 153.423 462.457 152.573 464.596C151.753 466.734 150.566 468.551 149.014 470.045C147.461 471.539 145.586 472.696 143.389 473.517C141.191 474.308 138.716 474.703 135.962 474.703C132.563 474.703 129.736 474.249 127.48 473.341C125.254 472.433 123.467 471.231 122.119 469.737C120.801 468.243 119.863 466.544 119.307 464.64C118.779 462.735 118.516 460.787 118.516 458.795ZM163.428 398.941H191.245V407.906H174.81V430.362H187.51V439.327H174.81V465.035H191.685V474H163.428V398.941ZM199.902 398.941H212.251C213.657 398.941 215.195 399 216.865 399.117C218.564 399.234 220.249 399.527 221.919 399.996C223.618 400.436 225.244 401.109 226.797 402.018C228.379 402.926 229.771 404.171 230.972 405.753C232.202 407.335 233.184 409.327 233.916 411.729C234.648 414.103 235.015 416.988 235.015 420.387V422.276C235.015 427.989 234.194 432.647 232.554 436.251C230.913 439.825 228.496 442.403 225.303 443.985L237.344 474H225.303L215.327 445.919H211.064V474H199.902V398.941ZM212.778 437.701C214.771 437.701 216.455 437.481 217.832 437.042C219.209 436.603 220.322 435.87 221.172 434.845C222.021 433.79 222.637 432.413 223.018 430.714C223.398 428.985 223.589 426.861 223.589 424.342V418.409C223.589 416.476 223.413 414.806 223.062 413.399C222.71 411.993 222.109 410.836 221.26 409.928C220.439 409.02 219.341 408.346 217.964 407.906C216.587 407.467 214.858 407.247 212.778 407.247H211.064V437.701H212.778ZM245.957 398.941H257.339V474H245.957V398.941ZM278.477 398.941H291.572L305.459 474H293.945L291.88 460.553H278.169L276.191 474H264.634L278.477 398.941ZM290.562 451.983L285.288 414.586H284.805L279.487 451.983H290.562ZM312.754 398.941H321.982L340.176 449.171H340.439C340.352 447.999 340.234 446.695 340.088 445.26C339.941 443.824 339.81 442.198 339.692 440.382C339.575 438.536 339.473 436.456 339.385 434.142C339.297 431.827 339.253 429.22 339.253 426.319V398.941H349.448V474H340.132L322.026 425.089H321.675C321.763 426.407 321.88 427.843 322.026 429.396C322.173 430.919 322.305 432.721 322.422 434.801C322.539 436.881 322.642 439.312 322.729 442.096C322.817 444.85 322.861 448.131 322.861 451.939V474H312.754V398.941ZM362.324 398.941H374.146C375.933 398.941 377.778 399 379.683 399.117C381.616 399.205 383.491 399.513 385.308 400.04C387.153 400.567 388.882 401.388 390.493 402.501C392.134 403.585 393.569 405.123 394.8 407.115C396.03 409.078 396.997 411.568 397.7 414.586C398.433 417.574 398.799 421.236 398.799 425.572V447.369C398.799 451.705 398.433 455.382 397.7 458.399C396.997 461.417 396.03 463.907 394.8 465.87C393.569 467.833 392.134 469.371 390.493 470.484C388.882 471.568 387.153 472.374 385.308 472.901C383.491 473.429 381.616 473.751 379.683 473.868C377.778 473.956 375.933 474 374.146 474H362.324V398.941ZM376.606 466.046C378.657 466.046 380.342 465.782 381.66 465.255C383.008 464.728 384.062 463.805 384.824 462.486C385.615 461.139 386.157 459.322 386.45 457.037C386.743 454.723 386.89 451.808 386.89 448.292V425.001C386.89 421.485 386.743 418.585 386.45 416.3C386.157 413.985 385.615 412.169 384.824 410.851C384.062 409.503 383.008 408.565 381.66 408.038C380.342 407.511 378.657 407.247 376.606 407.247H373.706V466.046H376.606ZM425.605 474.659C424.404 474.659 423.101 474.557 421.694 474.352C420.288 474.176 418.896 473.78 417.52 473.165C416.143 472.55 414.81 471.686 413.521 470.572C412.261 469.43 411.133 467.936 410.137 466.09C409.17 464.244 408.394 461.974 407.808 459.278C407.222 456.554 406.929 453.316 406.929 449.566V422.979C406.929 419.2 407.222 415.978 407.808 413.312C408.423 410.616 409.229 408.36 410.225 406.544C411.221 404.698 412.349 403.233 413.608 402.149C414.897 401.065 416.23 400.245 417.607 399.688C419.014 399.103 420.405 398.722 421.782 398.546C423.159 398.37 424.434 398.282 425.605 398.282C426.719 398.282 427.949 398.37 429.297 398.546C430.674 398.692 432.036 399.044 433.384 399.601C434.761 400.128 436.094 400.934 437.383 402.018C438.672 403.072 439.814 404.522 440.811 406.368C441.807 408.185 442.598 410.455 443.184 413.18C443.799 415.875 444.106 419.142 444.106 422.979V449.566C444.106 453.287 443.799 456.495 443.184 459.19C442.568 461.856 441.763 464.127 440.767 466.002C439.771 467.848 438.613 469.342 437.295 470.484C436.006 471.598 434.673 472.477 433.296 473.121C431.948 473.736 430.601 474.146 429.253 474.352C427.905 474.557 426.689 474.659 425.605 474.659ZM425.605 466.09C426.719 466.09 427.686 465.899 428.506 465.519C429.355 465.138 430.044 464.479 430.571 463.541C431.128 462.604 431.538 461.373 431.802 459.85C432.095 458.297 432.241 456.349 432.241 454.005V419.859C432.241 417.457 432.095 415.45 431.802 413.839C431.538 412.228 431.128 410.938 430.571 409.972C430.044 408.976 429.355 408.272 428.506 407.862C427.686 407.452 426.719 407.247 425.605 407.247C424.463 407.247 423.467 407.452 422.617 407.862C421.768 408.272 421.064 408.976 420.508 409.972C419.951 410.938 419.526 412.228 419.233 413.839C418.97 415.45 418.838 417.457 418.838 419.859V454.005C418.838 456.349 418.97 458.297 419.233 459.85C419.526 461.373 419.951 462.604 420.508 463.541C421.064 464.479 421.768 465.138 422.617 465.519C423.467 465.899 424.463 466.09 425.605 466.09Z" fill="white"/>
<defs>
<linearGradient id="paint0_linear" x1="305.324" y1="139.484" x2="449.637" y2="571.864" gradientUnits="userSpaceOnUse">
<stop stop-color="#BE55FF"/>
<stop offset="1" stop-color="white" stop-opacity="0"/>
</linearGradient>
<linearGradient id="paint1_linear" x1="43.7308" y1="444.038" x2="610.25" y2="435.532" gradientUnits="userSpaceOnUse">
<stop offset="0.416667" stop-color="#FE5F7C"/>
<stop offset="1" stop-color="#FDFF86" stop-opacity="0.83"/>
</linearGradient>
</defs>
</svg>
